<?xml version="1.0" encoding="UTF-8" standalone="no"?>
<!-- Generator: Adobe Illustrator 17.0.1, SVG Export Plug-In . SVG Version: 6.00 Build 0)  -->

<svg
   version="1.1"
   x="0px"
   y="0px"
   width="86px"
   height="86px"
   viewBox="0 0 86 86"
   enable-background="new 0 0 86 86"
   xml:space="preserve"
   id="svg21"
   sodipodi:docname="com.github.dracks.crrcsim.svg"
   inkscape:version="1.3.2 (091e20ef0f, 2023-11-25)"
   xmlns:inkscape="http://www.inkscape.org/namespaces/inkscape"
   xmlns:sodipodi="http://sodipodi.sourceforge.net/DTD/sodipodi-0.dtd"
   xmlns="http://www.w3.org/2000/svg"
   xmlns:svg="http://www.w3.org/2000/svg"><defs
   id="defs25" /><sodipodi:namedview
   id="namedview23"
   pagecolor="#ffffff"
   bordercolor="#000000"
   borderopacity="0.25"
   inkscape:showpageshadow="2"
   inkscape:pageopacity="0.0"
   inkscape:pagecheckerboard="0"
   inkscape:deskcolor="#d1d1d1"
   showgrid="false"
   inkscape:zoom="2.744186"
   inkscape:cx="-29.334746"
   inkscape:cy="43.000001"
   inkscape:window-width="1128"
   inkscape:window-height="534"
   inkscape:window-x="26"
   inkscape:window-y="23"
   inkscape:window-maximized="0"
   inkscape:current-layer="svg21" />
<g
   id="Layer_2"
   display="none">
</g>
<g
   id="Layer_1">
	<linearGradient
   id="SVGID_1_"
   gradientUnits="userSpaceOnUse"
   x1="0.7169"
   y1="85.2831"
   x2="85.2831"
   y2="0.7169">
		<stop
   offset="0"
   style="stop-color:#42a0eb;stop-opacity:1;"
   id="stop3" />
		<stop
   offset="1"
   style="stop-color:#00d6ff;stop-opacity:1;"
   id="stop5" />
	</linearGradient>
	<path
   fill="url(#SVGID_1_)"
   d="M84.277,0.3H43C19.417,0.3,0.3,19.418,0.3,43v41.277c0,0.786,0.637,1.423,1.423,1.423H43   c23.583,0,42.7-19.118,42.7-42.7V1.723C85.7,0.937,85.063,0.3,84.277,0.3z"
   id="path8" />
	<g
   id="g12">
		
	</g>
	
	
	
</g>
<g
   id="icon-l-airplane-mode"
   transform="matrix(0.78302554,0,0,0.79450222,3.560711,3.2845603)"
   style="fill:#ffffff;stroke-width:1;stroke-dasharray:none">
	<rect
   id="icon-l-airplane-mode_1_"
   style="opacity:0;fill:#ffffff;stroke-width:1;stroke-dasharray:none"
   width="96"
   height="96"
   x="0"
   y="0" />
	<g
   id="g136"
   style="fill:#ffffff;stroke-width:1;stroke-dasharray:none">
		<path
   style="opacity:0.6;fill:#ffffff;stroke-width:1;stroke-dasharray:none"
   d="m 65.898,91.75 c -0.153,0 -0.306,-0.016 -0.455,-0.047 L 49.938,88.485 c -0.382,-0.077 -0.824,-0.148 -0.942,-0.151 -0.112,0.003 -0.552,0.075 -0.935,0.155 l -15.506,3.215 c -1.101,0.224 -2.256,-0.434 -2.576,-1.459 l -1.365,-4.287 c -0.307,-1.008 0.151,-2.179 1.062,-2.736 L 40.318,76.69 C 40.84,76.37 41.223,76 41.323,75.832 V 61.442 L 10.866,66.365 C 9.682,66.548 8.7,65.78 8.496,64.696 L 7.037,56.851 C 6.846,55.847 7.393,54.737 8.311,54.272 L 40.935,37.817 c 0.171,-0.089 0.389,-0.434 0.389,-0.629 V 19.922 c 0,-0.643 0.079,-1.629 0.18,-2.246 0.194,-1.216 2.053,-11.922 7.418,-11.927 h 0.151 c 5.367,0 7.232,10.709 7.427,11.931 0.101,0.629 0.18,1.613 0.18,2.24 v 17.268 c -10e-4,0.196 0.207,0.53 0.384,0.619 l 32.618,16.464 c 0.906,0.453 1.461,1.557 1.286,2.565 L 89.5,64.694 c -0.174,0.978 -1.033,1.693 -2.042,1.693 v 0 c -0.106,0 -0.215,-0.008 -0.322,-0.024 L 56.676,61.439 V 75.83 c 0.104,0.172 0.504,0.554 1.009,0.861 l 10.637,6.53 c 0.906,0.547 1.366,1.72 1.063,2.724 l -1.357,4.304 c -0.292,0.888 -1.165,1.501 -2.13,1.501 z M 49,86.334 c 0.354,0 1.055,0.134 1.34,0.191 l 15.559,3.225 c 0.122,0 0.214,-0.08 0.225,-0.112 l 1.351,-4.282 c 0.027,-0.091 -0.053,-0.341 -0.192,-0.425 L 56.64,78.397 c -0.729,-0.445 -1.956,-1.36 -1.964,-2.475 V 61.313 c 0.004,-1.171 1.006,-2.06 2.197,-1.868 l 30.577,4.942 10e-4,-0.004 0.082,-0.057 1.466,-7.845 C 89.02,56.358 88.903,56.117 88.784,56.057 L 56.163,39.593 C 55.314,39.166 54.677,38.131 54.68,37.185 V 19.921 c 0,-0.52 -0.07,-1.401 -0.154,-1.924 C 54.099,15.338 52.183,7.75 49.073,7.75 h -0.15 c -3.113,0.003 -5.021,7.588 -5.444,10.246 -0.084,0.514 -0.155,1.394 -0.155,1.927 V 37.19 c 0,0.933 -0.634,1.968 -1.475,2.408 L 9.214,56.057 c -0.119,0.061 -0.236,0.295 -0.211,0.426 l 1.46,7.847 c 0.007,0.034 0.048,0.062 0.08,0.062 l 30.585,-4.943 c 1.177,-0.192 2.188,0.693 2.195,1.858 v 14.611 c -0.006,1.115 -1.231,2.03 -1.96,2.478 l -10.642,6.532 c -0.144,0.088 -0.228,0.336 -0.198,0.437 l 1.363,4.281 c 0.013,0.035 0.101,0.105 0.214,0.105 l 15.554,-3.22 C 47.94,86.472 48.642,86.334 49,86.334 Z"
   id="path132" />
		<path
   style="fill:#ffffff;stroke-width:1;stroke-dasharray:none"
   d="M 48.999,88 C 48.726,88 48.464,87.888 48.275,87.689 48.064,87.468 43.094,82.229 41.907,79.036 41.657,78.362 41,75.717 41,73.747 V 19.588 c 0,-0.642 0.083,-1.631 0.189,-2.252 0.203,-1.217 2.15,-11.916 7.728,-11.92 h 0.159 c 5.58,0 7.532,10.703 7.736,11.923 C 56.917,17.973 57,18.96 57,19.586 v 54.161 c 0,2.026 -0.689,4.718 -0.909,5.295 -1.189,3.186 -6.157,8.426 -6.368,8.647 C 49.534,87.888 49.272,88 48.999,88 Z M 48.917,7.416 C 45.615,7.419 43.604,15.01 43.161,17.669 43.074,18.182 43,19.06 43,19.588 v 54.159 c 0,1.715 0.621,4.16 0.781,4.593 0.741,1.993 3.564,5.361 5.217,7.188 1.652,-1.827 4.478,-5.197 5.222,-7.189 C 54.375,77.928 55,75.466 55,73.748 V 19.586 C 55,19.07 54.926,18.192 54.839,17.668 54.392,15.009 52.374,7.415 49.075,7.415 h -0.158 z"
   id="path134" />
	</g>
</g></svg>
